# xmcd
#
# Track frame offsets:
#	150
#	15652
#	32778
#	45173
#	62662
#	81319
#	104399
#	119428
#	137184
#	154878
#	173375
#	196625
#	214260
#	231305
#	244478
#	261937
#	284646
#	311076
#	334883
#
# Disc length: 4683 seconds
#
# Revision: 6
# Processed by: cddbd v1.5.2PL0 Copyright (c) Steve Scherf et al.
# Submitted via: audiograbber 1.83.01
#
DISCID=16124913
DTITLE=KuschelROCK - KuschelROCK - The Very Best Of [CD 2)
DYEAR=2008
DGENRE=Pop
TTITLE0=John Lennon - Woman
TTITLE1=Elton John - Candle In The Wind
TTITLE2=Joe Cocker - You Are So Beautiful
TTITLE3=Billy Joel - Honesty
TTITLE4=Lionel Richie - Hello
TTITLE5=Eros Ramazzotti - Se Bastasse Una Canzone
TTITLE6=Barry Manilow - Mandy
TTITLE7=Art Garfunkel - Bright Eyes
TTITLE8=Bangles - Eternal Flame
TTITLE9=Prince and The Revolution - Purple Rain
TTITLE10=Sinéad O'Connor - Nothing Compares 2 U
TTITLE11=The Cars - Drive
TTITLE12=Chicago - Hard To Say I'm Sorry
TTITLE13=Ben E. King - Stand By Me
TTITLE14=Patrick Swayze - She's Like The Wind
TTITLE15=Oasis - Stop Crying Your Heart Out
TTITLE16=Eric Clapton - Lead Me On  (feat. Cecil and Linda Womack)
TTITLE17=R.E.M. - Everybody Hurts
TTITLE18=Elvis Presley - Always On My Mind
EXTD=
EXTT0=
EXTT1=
EXTT2=
EXTT3=
EXTT4=
EXTT5=
EXTT6=
EXTT7=
EXTT8=
EXTT9=
EXTT10=
EXTT11=
EXTT12=
EXTT13=
EXTT14=
EXTT15=
EXTT16=
EXTT17=
EXTT18=
PLAYORDER=
